<?xml version="1.0" standalone="no"?>
<!DOCTYPE svg PUBLIC "-//W3C//DTD SVG 20010904//EN"
 "http://www.w3.org/TR/2001/REC-SVG-20010904/DTD/svg10.dtd">
<svg version="1.0" xmlns="http://www.w3.org/2000/svg"
 width="700.000000pt" height="700.000000pt" viewBox="0 0 700.000000 700.000000"
 preserveAspectRatio="xMidYMid meet">
<metadata>
Created by potrace 1.11, written by Peter Selinger 2001-2013
</metadata>
<g transform="translate(0.000000,700.000000) scale(0.100000,-0.100000)"
fill="#000000" stroke="none">
<path d="M4909 6839 c-30 -10 -63 -23 -74 -29 -11 -5 -121 -50 -245 -99 -385
-153 -524 -211 -565 -236 -71 -41 -152 -129 -183 -197 -6 -16 -17 -38 -22 -50
-9 -20 -157 -457 -410 -1208 -45 -135 -88 -250 -94 -257 -18 -19 -237 -73
-441 -108 -16 -2 -55 -9 -85 -15 -60 -10 -95 -16 -154 -25 -21 -4 -48 -9 -60
-11 -31 -6 -194 -6 -246 1 -70 9 -200 35 -256 51 -28 8 -60 16 -70 19 -11 2
-75 20 -144 40 -107 30 -134 35 -190 30 -326 -29 -607 -220 -753 -510 -34 -68
-62 -141 -71 -187 -3 -13 -10 -48 -16 -78 -12 -65 -12 -1402 0 -1520 16 -139
21 -175 46 -292 64 -304 194 -611 368 -871 45 -67 89 -131 98 -142 9 -11 42
-51 74 -90 76 -93 242 -257 335 -330 41 -33 79 -63 84 -67 83 -68 273 -187
395 -248 272 -135 582 -223 896 -254 149 -15 653 -13 789 3 531 62 1021 281
1418 636 489 437 795 1056 841 1705 11 144 8 1393 -3 1466 -50 336 -305 633
-638 742 -63 21 -155 36 -276 47 -37 3 -82 7 -100 10 -78 12 -243 33 -257 33
-8 0 -33 2 -55 5 -22 4 -94 14 -160 22 -140 19 -145 20 -295 40 -63 9 -137 19
-165 22 -70 10 -237 6 -320 -7 -38 -6 -86 -13 -105 -16 -19 -3 -51 -9 -71 -13
-36 -8 -37 -8 -29 18 12 39 143 438 220 671 37 113 80 246 95 295 32 110 94
239 135 282 38 42 112 99 153 117 48 22 190 80 202 82 10 3 163 64 220 89 17
7 100 41 185 75 85 34 165 71 177 82 37 35 39 80 8 161 -46 121 -91 149 -186
116z"/>
</g>
</svg>
